<?xml version="1.0" encoding="UTF-8"?><svg id="Capa_1" xmlns="http://www.w3.org/2000/svg" viewBox="0 0 700 150"><defs><style>.cls-1{fill:#fff;}</style></defs><path class="cls-1" d="M0,147.13V2.87H70.89V37.85h-30.98v20.85h27.16v33.99h-27.16v54.45H0Z"/><path class="cls-1" d="M76.87,75.1c0-23.85,4.69-42.33,14.07-55.43C100.32,6.56,113.51,0,130.51,0s30.05,6.54,39.37,19.61c9.32,13.08,13.97,31.57,13.97,55.48s-4.64,42.29-13.92,55.34c-9.28,13.04-22.42,19.57-39.42,19.57s-30.27-6.54-39.61-19.61c-9.35-13.08-14.02-31.5-14.02-55.29Zm40.4-.99c0,15.02,.98,25.28,2.94,30.78,1.96,5.5,5.39,8.25,10.3,8.25s8.22-2.72,10.15-8.15c1.93-5.43,2.89-15.73,2.89-30.88s-.97-25.46-2.89-30.93c-1.93-5.47-5.31-8.2-10.15-8.2s-8.33,2.77-10.3,8.3-2.94,15.81-2.94,30.83Z"/><path class="cls-1" d="M191.11,75.1c0-23.85,4.69-42.33,14.07-55.43C214.56,6.56,227.74,0,244.74,0s30.05,6.54,39.37,19.61c9.32,13.08,13.97,31.57,13.97,55.48s-4.64,42.29-13.92,55.34c-9.28,13.04-22.42,19.57-39.42,19.57s-30.27-6.54-39.61-19.61c-9.35-13.08-14.02-31.5-14.02-55.29Zm40.4-.99c0,15.02,.98,25.28,2.94,30.78,1.96,5.5,5.39,8.25,10.3,8.25s8.22-2.72,10.15-8.15c1.93-5.43,2.89-15.73,2.89-30.88s-.97-25.46-2.89-30.93c-1.93-5.47-5.31-8.2-10.15-8.2s-8.33,2.77-10.3,8.3-2.94,15.81-2.94,30.83Z"/><path class="cls-1" d="M366.13,147.13h-40.1V39.43h-23.73V2.87h87.56V39.43h-23.73v107.71Z"/><path class="cls-1" d="M398.88,147.13V2.87h44.61c16.15,0,28.27,3.03,36.38,9.09,8.11,6.06,12.16,15.09,12.16,27.08,0,8.7-2.27,15.71-6.81,21.05-4.54,5.34-11.42,9.06-20.64,11.17,10.33,2.24,17.99,6.24,22.99,12.01,5,5.76,7.5,13.49,7.5,23.17,0,13.5-4.35,23.67-13.04,30.48-8.69,6.82-21.54,10.23-38.53,10.23h-44.61Zm39.03-88.64c5.56-.2,9.67-1.37,12.35-3.51,2.68-2.14,4.02-5.35,4.02-9.63,0-3.69-1.26-6.57-3.78-8.65-2.52-2.08-6-3.11-10.44-3.11h-2.26l.1,24.9Zm-.1,56.03h2.06c4.77,0,8.43-1.28,10.98-3.85s3.82-6.19,3.82-10.87-1.47-8.09-4.41-10.62c-2.94-2.54-7.09-3.8-12.45-3.8v29.15Z"/><path class="cls-1" d="M497.42,147.13L528.8,2.87h45.01l31.28,144.27h-38.93l-3.04-21.25h-23.63l-3.04,21.25h-39.03Zm45.99-50.4h15.88l-8.04-53.46-7.84,53.46Z"/><path class="cls-1" d="M594,2.87h42.16l10.79,44.27,10.88-44.27h42.16l-33.14,86.36v57.91h-39.81v-57.91L594,2.87Z"/></svg>